<?xml version="1.0" encoding="utf-8"?>
<!-- Generator: Adobe Illustrator 15.0.0, SVG Export Plug-In . SVG Version: 6.00 Build 0)  -->
<!DOCTYPE svg PUBLIC "-//W3C//DTD SVG 1.1//EN" "http://www.w3.org/Graphics/SVG/1.1/DTD/svg11.dtd">
<svg version="1.1" id="Layer_1" xmlns="http://www.w3.org/2000/svg" xmlns:xlink="http://www.w3.org/1999/xlink" x="0px" y="0px"
	 width="54px" height="40px" viewBox="0 0 54 40" enable-background="new 0 0 54 40" xml:space="preserve">
<g>
	<path fill="#48BBA0" d="M15.673,27.609c-1.352,0-2.688-0.26-3.973-0.773c-3.041-1.217-7.132-4.934-7.305-5.092
		c-0.217-0.197-0.336-0.48-0.328-0.773c0.008-0.293,0.144-0.568,0.372-0.753l3.36-2.73c0.196-0.159,0.438-0.235,0.699-0.224
		c1.336,0.084,7.405,0.869,9.002,1.078c1.991-1.327,12.403-8.233,16.783-10.553c3.12-1.652,8.486-2.516,12.174-2.516
		c2.662,0,3.419,0.439,3.781,0.82c0.252,0.267,0.381,0.607,0.363,0.96c-0.197,3.743-8.405,8.349-10.049,9.234
		c-0.135,0.073-0.284,0.113-0.438,0.12c-2.536,0.102-9.451,0.463-10.963,0.895c-0.92,0.263-2.133,1.247-3.017,2.07l3.434,1.549
		c0.368,0.165,0.601,0.534,0.593,0.938c-0.007,0.402-0.254,0.763-0.629,0.914l-10.36,4.2C19.152,26.984,17.748,27.609,15.673,27.609
		z M6.64,21.027c1.329,1.125,3.887,3.167,5.81,3.937c1.045,0.418,2.129,0.63,3.224,0.63c1.614,0,2.699-0.47,2.71-0.475l8.21-3.328
		l-2.614-1.179c-0.293-0.132-0.506-0.396-0.572-0.711c-0.066-0.315,0.022-0.643,0.238-0.881c0.277-0.309,2.776-3.034,4.952-3.655
		c1.902-0.543,9.533-0.892,11.201-0.962c3.365-1.841,7.888-4.998,8.673-6.967c-0.345-0.07-0.962-0.147-2.015-0.147
		c-3.354,0-8.431,0.8-11.23,2.282c-4.66,2.468-16.799,10.576-16.921,10.657c-0.203,0.136-0.448,0.195-0.691,0.161
		c-0.073-0.009-6.768-0.888-8.856-1.082L6.64,21.027z"/>
	<path fill="#48BBA0" d="M45.162,35.728H12.309c-0.557,0-1.008-0.451-1.008-1.008s0.451-1.008,1.008-1.008h32.854
		c0.557,0,1.008,0.451,1.008,1.008S45.719,35.728,45.162,35.728z"/>
	<path fill="#48BBA0" d="M27.289,23.595c-0.417,0-0.806-0.261-0.951-0.675c-0.184-0.525,0.092-1.102,0.618-1.285
		c0.027-0.01,2.781-0.981,6.167-2.743c3.385-1.76,7.422-4.824,7.461-4.854c0.443-0.335,1.076-0.252,1.413,0.191
		c0.337,0.443,0.251,1.076-0.191,1.414c-0.171,0.129-4.216,3.2-7.753,5.038c-3.523,1.833-6.314,2.816-6.431,2.857
		C27.511,23.576,27.399,23.595,27.289,23.595z"/>
</g>
</svg>
