<?xml version="1.0" encoding="utf-8"?>
<!-- Generator: Adobe Illustrator 15.0.0, SVG Export Plug-In . SVG Version: 6.00 Build 0)  -->
<!DOCTYPE svg PUBLIC "-//W3C//DTD SVG 1.1//EN" "http://www.w3.org/Graphics/SVG/1.1/DTD/svg11.dtd">
<svg version="1.1" id="Layer_1" xmlns="http://www.w3.org/2000/svg" xmlns:xlink="http://www.w3.org/1999/xlink" x="0px" y="0px"
	 width="54px" height="40px" viewBox="0 0 54 40" enable-background="new 0 0 54 40" xml:space="preserve">
<g>
	<path fill="#48BBA0" d="M13.453,31.321c-0.411,0-0.747-0.332-0.75-0.744L12.542,9.295c-0.016-0.094-0.488-4.284,2.502-5.78
		C17.909,2.081,25.786,2.003,26.12,2c0.334,0.003,7.925,0.081,10.792,1.515c2.954,1.477,2.801,5.633,2.793,5.809l-0.157,21.252
		c-0.004,0.414-0.339,0.746-0.75,0.746c-0.002,0-0.004,0-0.006,0c-0.414-0.003-0.748-0.342-0.744-0.754l0.158-21.283
		c0.002-0.061,0.114-3.388-1.965-4.428C34.118,3.794,28.216,3.518,26.12,3.5c-2.167,0.018-8.285,0.294-10.405,1.356
		c-2.055,1.027-1.683,4.31-1.678,4.342l0.166,21.367c0.003,0.414-0.33,0.753-0.745,0.756C13.457,31.321,13.455,31.321,13.453,31.321
		z"/>
	<path fill="#48BBA0" d="M38.81,8.923H13.611c-0.414,0-0.75-0.336-0.75-0.75s0.336-0.75,0.75-0.75H38.81
		c0.414,0,0.75,0.336,0.75,0.75S39.224,8.923,38.81,8.923z"/>
	<path fill="#48BBA0" d="M38.647,21.434H13.453c-0.414,0-0.75-0.335-0.75-0.75s0.336-0.75,0.75-0.75h25.194
		c0.415,0,0.75,0.335,0.75,0.75S39.062,21.434,38.647,21.434z"/>
	<path fill="#48BBA0" d="M25.972,21.274c-0.414,0-0.75-0.336-0.75-0.75V8.65c0-0.415,0.336-0.75,0.75-0.75
		c0.415,0,0.75,0.335,0.75,0.75v11.874C26.722,20.938,26.387,21.274,25.972,21.274z"/>
	<path fill="#48BBA0" d="M38.171,32.312h-24.08c-0.828,0-1.5-0.671-1.5-1.5s0.672-1.5,1.5-1.5h24.08c0.828,0,1.5,0.671,1.5,1.5
		S38.999,32.312,38.171,32.312z"/>
	<rect x="16.802" y="24.047" fill="#48BBA0" width="4.146" height="3"/>
	<rect x="31.075" y="24.047" fill="#48BBA0" width="4.145" height="3"/>
	<rect x="9.562" y="14.306" fill="#48BBA0" width="3" height="4.545"/>
	<rect x="39.7" y="14.224" fill="#48BBA0" width="3" height="4.547"/>
	<path fill="none" stroke="#48BBA0" stroke-width="2" stroke-linecap="round" stroke-miterlimit="10" d="M21.708,35.847
		c0,1.634-1.324,1.958-2.958,1.958l0,0c-1.634,0-2.958-0.324-2.958-1.958v-3.501c0-1.634,1.324-1.958,2.958-1.958l0,0
		c1.634,0,2.958,0.324,2.958,1.958V35.847z"/>
	<path fill="none" stroke="#48BBA0" stroke-width="2" stroke-linecap="round" stroke-miterlimit="10" d="M36.604,35.784
		c0,1.634-1.324,1.958-2.958,1.958l0,0c-1.635,0-2.959-0.324-2.959-1.958v-3.501c0-1.634,1.324-1.958,2.959-1.958l0,0
		c1.634,0,2.958,0.324,2.958,1.958V35.784z"/>
</g>
</svg>
