<?xml version="1.0" encoding="utf-8"?>
<!-- Generator: Adobe Illustrator 15.0.0, SVG Export Plug-In . SVG Version: 6.00 Build 0)  -->
<!DOCTYPE svg PUBLIC "-//W3C//DTD SVG 1.1//EN" "http://www.w3.org/Graphics/SVG/1.1/DTD/svg11.dtd">
<svg version="1.1" id="Layer_1" xmlns="http://www.w3.org/2000/svg" xmlns:xlink="http://www.w3.org/1999/xlink" x="0px" y="0px"
	 width="28px" height="28px" viewBox="0 0 28 28" enable-background="new 0 0 28 28" xml:space="preserve">
<g>
	<path fill="#CEC5AD" d="M24.328,3.208h-3.923V1H19.16v2.208H8.705V1H7.46v2.208H3.6c-1.436,0-2.6,1.164-2.6,2.6v18.29
		c0,1.436,1.164,2.6,2.6,2.6h20.729c1.437,0,2.601-1.164,2.601-2.6V5.808C26.929,4.373,25.765,3.208,24.328,3.208z M25.813,24.098
		c0,0.719-0.582,1.301-1.3,1.301H3.465c-0.718,0-1.3-0.582-1.3-1.301V5.808c0-0.718,0.582-1.3,1.3-1.3H7.46v2.133h1.245V4.508H19.16
		v2.133h1.245V4.508h4.108c0.718,0,1.3,0.582,1.3,1.3V24.098z"/>
	<rect x="4.651" y="8.487" fill="#CEC5AD" width="18.562" height="1.207"/>
	<rect x="11.815" y="13.688" fill="#CEC5AD" width="4.166" height="1.205"/>
	<rect x="4.813" y="13.688" fill="#CEC5AD" width="3.612" height="1.205"/>
	<rect x="19.372" y="13.688" fill="#CEC5AD" width="4.004" height="1.205"/>
	<rect x="11.815" y="17.588" fill="#CEC5AD" width="4.166" height="1.205"/>
	<rect x="19.372" y="17.588" fill="#CEC5AD" width="4.004" height="1.205"/>
	<rect x="4.813" y="17.588" fill="#CEC5AD" width="3.612" height="1.205"/>
	<rect x="19.372" y="21.486" fill="#CEC5AD" width="4.004" height="1.207"/>
	<rect x="4.813" y="21.486" fill="#CEC5AD" width="3.612" height="1.207"/>
	<rect x="11.815" y="21.486" fill="#CEC5AD" width="4.166" height="1.207"/>
</g>
</svg>
