<?xml version="1.0" encoding="utf-8"?>
<!-- Generator: Adobe Illustrator 15.0.0, SVG Export Plug-In . SVG Version: 6.00 Build 0)  -->
<!DOCTYPE svg PUBLIC "-//W3C//DTD SVG 1.1//EN" "http://www.w3.org/Graphics/SVG/1.1/DTD/svg11.dtd">
<svg version="1.1" id="Layer_1" xmlns="http://www.w3.org/2000/svg" xmlns:xlink="http://www.w3.org/1999/xlink" x="0px" y="0px"
	 width="50px" height="50px" viewBox="0 0 50 50" enable-background="new 0 0 50 50" xml:space="preserve">
<g>
	<path fill="none" d="M49,46.85c0,1.129-0.912,2.045-2.036,2.045H3.037C1.913,48.895,1,47.979,1,46.85V3.045
		C1,1.916,1.913,1,3.037,1h43.927C48.088,1,49,1.916,49,3.045V46.85z"/>
	<path fill="#D8C698" d="M46.964,49.395H3.037c-1.399,0-2.537-1.142-2.537-2.545V3.045C0.5,1.642,1.638,0.5,3.037,0.5h43.927
		c1.397,0,2.536,1.142,2.536,2.545V46.85C49.5,48.253,48.361,49.395,46.964,49.395z M3.037,1.5C2.189,1.5,1.5,2.193,1.5,3.045V46.85
		c0,0.853,0.689,1.545,1.537,1.545h43.927c0.847,0,1.536-0.692,1.536-1.545V3.045c0-0.852-0.689-1.545-1.536-1.545H3.037z"/>
</g>
<g>
	<path fill="#D7C69B" d="M16.103,28.882h0.648v-9.819h-0.648v4.435H9.638v-4.435H8.99v9.819h0.647v-4.809h6.465L16.103,28.882
		L16.103,28.882z"/>
	<path fill="#D7C69B" d="M19.905,28.882h0.648v-9.819h-0.648V28.882z"/>
	<path fill="#D7C69B" d="M28.329,24.368v-0.575h-4.637v0.575H28.329z"/>
	<path fill="#D7C69B" d="M36.738,19.062h-5.385v9.819H32v-4.636h4.579V23.67H32v-4.032h4.736v-0.576H36.738z"/>
	<path fill="#D7C69B" d="M39.432,28.882h0.647v-9.819h-0.647V28.882z"/>
</g>
</svg>
