<?xml version="1.0" encoding="utf-8"?>
<!-- Generator: Adobe Illustrator 15.0.0, SVG Export Plug-In . SVG Version: 6.00 Build 0)  -->
<!DOCTYPE svg PUBLIC "-//W3C//DTD SVG 1.1//EN" "http://www.w3.org/Graphics/SVG/1.1/DTD/svg11.dtd">
<svg version="1.1" id="Layer_1" xmlns="http://www.w3.org/2000/svg" xmlns:xlink="http://www.w3.org/1999/xlink" x="0px" y="0px"
	 width="35px" height="35px" viewBox="0 0 35 35" enable-background="new 0 0 35 35" xml:space="preserve">
<g>
	<path fill="#6A5240" d="M28.342,11.486c-0.779,0.342-1.615,0.575-2.496,0.68c0.897-0.533,1.588-1.379,1.911-2.384
		c-0.839,0.492-1.771,0.851-2.76,1.045c-0.792-0.838-1.921-1.36-3.171-1.36c-2.4,0-4.347,1.93-4.347,4.309
		c0,0.337,0.038,0.666,0.111,0.982c-3.611-0.182-6.813-1.896-8.957-4.503c-0.374,0.637-0.588,1.376-0.588,2.164
		c0,1.495,0.768,2.814,1.933,3.587c-0.712-0.021-1.383-0.215-1.968-0.538v0.054c0,2.088,1.498,3.828,3.486,4.225
		c-0.365,0.099-0.749,0.151-1.146,0.151c-0.279,0-0.553-0.024-0.817-0.076c0.553,1.71,2.158,2.958,4.06,2.991
		c-1.488,1.156-3.361,1.845-5.398,1.845c-0.351,0-0.696-0.02-1.037-0.059c1.922,1.222,4.208,1.936,6.662,1.936
		c7.994,0,12.365-6.564,12.365-12.259l-0.012-0.558C27.023,13.109,27.76,12.351,28.342,11.486z"/>
</g>
</svg>
