<?xml version="1.0" encoding="utf-8"?>
<!-- Generator: Adobe Illustrator 15.0.0, SVG Export Plug-In . SVG Version: 6.00 Build 0)  -->
<!DOCTYPE svg PUBLIC "-//W3C//DTD SVG 1.1//EN" "http://www.w3.org/Graphics/SVG/1.1/DTD/svg11.dtd">
<svg version="1.1" id="Layer_1" xmlns="http://www.w3.org/2000/svg" xmlns:xlink="http://www.w3.org/1999/xlink" x="0px" y="0px"
	 width="35px" height="35px" viewBox="0 0 35 35" enable-background="new 0 0 35 35" xml:space="preserve">
<g>
	<path fill-rule="evenodd" clip-rule="evenodd" fill="#6A5240" d="M7.997,12.282h4.333v13.914H7.997V12.282z"/>
	<path fill-rule="evenodd" clip-rule="evenodd" fill="#6A5240" d="M15.069,12.244h4.125c0,0,0.022,1.133,0.022,2.218
		c0,0.485,0.169,0.756,0.168,1.362c-0.004,4.096-0.022,10.349-0.022,10.349h-4.293V12.244z"/>
	<path fill-rule="evenodd" clip-rule="evenodd" fill="#6A5240" d="M18.816,14.657c0,0,1.124-2.22,3.066-2.564
		c1.943-0.345,4.348-0.294,5.545,1.505c1.198,1.799,1.107,4.198,1.107,4.198v8.308h-4.324l0.004-7.525c0,0,0.123-3.082-2.468-2.845
		c-2.847,0.261-2.327,3.567-2.327,3.567L18.816,14.657z"/>
	<path fill-rule="evenodd" clip-rule="evenodd" fill="#6A5240" d="M10.152,5.304c1.389,0,2.514,1.126,2.514,2.515
		s-1.125,2.514-2.514,2.514S7.637,9.207,7.637,7.818S8.763,5.304,10.152,5.304z"/>
</g>
</svg>
