<?xml version="1.0" encoding="utf-8"?>
<!-- Generator: Adobe Illustrator 15.0.0, SVG Export Plug-In . SVG Version: 6.00 Build 0)  -->
<!DOCTYPE svg PUBLIC "-//W3C//DTD SVG 1.1//EN" "http://www.w3.org/Graphics/SVG/1.1/DTD/svg11.dtd">
<svg version="1.1" id="Layer_1" xmlns="http://www.w3.org/2000/svg" xmlns:xlink="http://www.w3.org/1999/xlink" x="0px" y="0px"
	 width="22px" height="26px" viewBox="0 0 22 26" enable-background="new 0 0 22 26" xml:space="preserve">
<g>
	<path fill="#0E5355" d="M19.117,12.399c-1.34-1.217-3.229-0.822-3.229-0.822l-2.956-3.458h-6.2L4.02,11.518l-1.555,0.084
		c0,0-0.837-0.469-0.928,2.391c-0.091,2.86,0.753,1.939,0.753,1.939l1.464-0.06c0,0,0.358-2.059,2.504-2.142
		c2.146-0.082,2.523,2.135,2.523,2.135h4.165c0,0,0.598-2.088,2.6-2.126s2.435,2.099,2.435,2.099h1.499c0,0,0.477-0.102,0.692-0.598
		C20.387,14.745,20.456,13.616,19.117,12.399z M9.478,11.475l-3.644,0.047l1.54-2.08h2.104V11.475z M10.913,11.635L10.841,9.45h1.6
		l1.747,2.185H10.913z"/>
	<circle fill="#0E5355" cx="6.233" cy="16.996" r="1.804"/>
	<circle fill="#0E5355" cx="15.449" cy="16.996" r="1.804"/>
</g>
</svg>
