<?xml version="1.0" encoding="utf-8"?>
<!-- Generator: Adobe Illustrator 15.0.0, SVG Export Plug-In . SVG Version: 6.00 Build 0)  -->
<!DOCTYPE svg PUBLIC "-//W3C//DTD SVG 1.1//EN" "http://www.w3.org/Graphics/SVG/1.1/DTD/svg11.dtd">
<svg version="1.1" id="Layer_1" xmlns="http://www.w3.org/2000/svg" xmlns:xlink="http://www.w3.org/1999/xlink" x="0px" y="0px"
	 width="35px" height="35px" viewBox="0 0 35 35" enable-background="new 0 0 35 35" xml:space="preserve">
<g>
	<path fill="#DDCD9F" d="M29.91,11.9c-0.232-1.597-1.354-2.717-2.956-2.933c0,0-4.745-0.379-9.485-0.379
		c-4.729,0-9.454,0.379-9.454,0.379C6.356,9.174,5.257,10.395,5.059,11.9c0,0-0.355,2.705-0.355,5.474
		c0,2.899,0.402,5.867,0.402,5.867c0.279,1.624,1.288,2.581,2.909,2.861c0,0,4.55,0.402,9.189,0.402c4.826,0,9.75-0.331,9.75-0.331
		c1.632-0.307,2.579-1.359,2.933-2.933c0,0,0.379-2.904,0.379-5.773C30.266,14.667,29.91,11.9,29.91,11.9z M14.203,21.824
		l0.023-8.57l8.168,4.285L14.203,21.824z"/>
</g>
</svg>
