<?xml version="1.0" encoding="utf-8"?>
<!-- Generator: Adobe Illustrator 15.0.0, SVG Export Plug-In . SVG Version: 6.00 Build 0)  -->
<!DOCTYPE svg PUBLIC "-//W3C//DTD SVG 1.1//EN" "http://www.w3.org/Graphics/SVG/1.1/DTD/svg11.dtd">
<svg version="1.1" id="Layer_1" xmlns="http://www.w3.org/2000/svg" xmlns:xlink="http://www.w3.org/1999/xlink" x="0px" y="0px"
	 width="50px" height="50px" viewBox="0 0 50 50" enable-background="new 0 0 50 50" xml:space="preserve">
<g>
	<path fill="none" d="M49,46.85c0,1.129-0.912,2.045-2.036,2.045H3.037C1.913,48.895,1,47.979,1,46.85V3.045
		C1,1.916,1.913,1,3.037,1h43.927C48.088,1,49,1.916,49,3.045V46.85z"/>
	<path fill="#D8C698" d="M46.964,49.395H3.037c-1.399,0-2.537-1.142-2.537-2.545V3.045C0.5,1.642,1.638,0.5,3.037,0.5h43.927
		c1.398,0,2.536,1.142,2.536,2.545V46.85C49.5,48.253,48.362,49.395,46.964,49.395z M3.037,1.5C2.189,1.5,1.5,2.193,1.5,3.045V46.85
		c0,0.852,0.689,1.545,1.537,1.545h43.927c0.847,0,1.536-0.693,1.536-1.545V3.045c0-0.852-0.689-1.545-1.536-1.545H3.037z"/>
</g>
<g>
	<path fill="#D8C698" d="M15.511,8.479h-5.385v9.819h0.648v-4.636h4.579v-0.576h-4.579V9.055h4.737V8.479z"/>
	<path fill="#D8C698" d="M21.603,18.615c1.944,0,3.585-1.108,3.585-4.219V8.479H24.54v6.134c0,2.016-0.835,3.426-2.938,3.426
		c-1.857,0-2.923-1.41-2.923-3.426V8.479h-0.648v5.946C18.032,17.536,19.832,18.615,21.603,18.615z"/>
	<path fill="#D8C698" d="M28.111,18.299h5.544v-0.576H28.76V8.479h-0.648V18.299z"/>
	<path fill="#D8C698" d="M35.858,18.299h5.544v-0.576h-4.896V8.479h-0.648V18.299z"/>
	<path fill="#D8C698" d="M21.856,41.898h1.008V26.622h-1.008v6.899H11.798v-6.899h-1.008v15.276h1.008v-7.481h10.058V41.898z"/>
	<path fill="#D8C698" d="M27.859,26.622v15.276h4.793c5.376,0,8.378-3.494,8.378-7.638c0-4.167-2.822-7.639-8.333-7.639H27.859z
		 M28.867,41.003V27.519h3.897c4.614,0,7.19,2.777,7.19,6.742c0,3.696-2.486,6.742-7.414,6.742H28.867z"/>
</g>
</svg>
