<?xml version="1.0" encoding="utf-8"?>
<!-- Generator: Adobe Illustrator 15.0.0, SVG Export Plug-In . SVG Version: 6.00 Build 0)  -->
<!DOCTYPE svg PUBLIC "-//W3C//DTD SVG 1.1//EN" "http://www.w3.org/Graphics/SVG/1.1/DTD/svg11.dtd">
<svg version="1.1" id="Layer_1" xmlns="http://www.w3.org/2000/svg" xmlns:xlink="http://www.w3.org/1999/xlink" x="0px" y="0px"
	 width="35px" height="35px" viewBox="0 0 35 35" enable-background="new 0 0 35 35" xml:space="preserve">
<g>
	<path fill="#DDCD9F" d="M25.33,7.856H9.689c-1.02,0-1.847,0.826-1.847,1.847v15.653c0,1.02,0.827,1.847,1.847,1.847H25.33
		c1.02,0,1.847-0.827,1.847-1.847V9.703C27.177,8.683,26.35,7.856,25.33,7.856z M21.232,17.547c0,1.999-1.621,3.62-3.621,3.62
		c-1.999,0-3.62-1.621-3.62-3.62c0-0.568,0.142-1.098,0.375-1.576c0.587-1.206,1.813-2.044,3.245-2.044
		c1.433,0,2.658,0.838,3.246,2.044C21.09,16.449,21.232,16.979,21.232,17.547z M22.102,13.747c-0.51,0-0.924-0.414-0.924-0.924
		v-0.012v-2.04c0-0.458,0.341-0.822,0.779-0.895h2.41c0.438,0.072,0.777,0.436,0.777,0.895v2.052c0,0.51-0.412,0.924-0.923,0.924
		h-2.053H22.102z M25.505,24.367c0,0.511-0.413,0.924-0.923,0.924H10.463c-0.51,0-0.923-0.413-0.923-0.924v-8.396h2.356
		c-0.138,0.503-0.218,1.029-0.218,1.576c0,3.277,2.657,5.935,5.934,5.935c3.277,0,5.936-2.657,5.936-5.935
		c0-0.547-0.08-1.073-0.219-1.576h2.177V24.367z"/>
</g>
</svg>
