<?xml version="1.0" encoding="utf-8"?>
<!-- Generator: Adobe Illustrator 15.0.0, SVG Export Plug-In . SVG Version: 6.00 Build 0)  -->
<!DOCTYPE svg PUBLIC "-//W3C//DTD SVG 1.1//EN" "http://www.w3.org/Graphics/SVG/1.1/DTD/svg11.dtd">
<svg version="1.1" id="Layer_1" xmlns="http://www.w3.org/2000/svg" xmlns:xlink="http://www.w3.org/1999/xlink" x="0px" y="0px"
	 width="22px" height="26px" viewBox="0 0 22 26" enable-background="new 0 0 22 26" xml:space="preserve">
<g>
	<path fill-rule="evenodd" clip-rule="evenodd" fill="#0E5355" d="M10.42,10.55l-1.275,5.72l-1.583,2.72
		c0,0-0.257,0.678,0.262,0.954c0.52,0.275,1.17-0.269,1.17-0.269l1.792-3.042l0.433-1.939l1.732,1.845l0.534,2.849
		c0,0,0.217,0.814,0.998,0.66s0.586-1.098,0.586-1.098l-0.604-2.982l-2.183-2.615l0.553-2.367l0.506,0.974l1.905,1.314
		c0,0,0.445,0.165,0.691-0.177s-0.092-0.732-0.092-0.732l-1.672-1.171l-1.229-2.358c0,0-0.33-0.581-0.851-0.582
		c-0.521,0-1.033,0.314-1.033,0.314l-2.379,1.976l-0.602,2.437c0,0-0.079,0.682,0.43,0.743c0.51,0.06,0.675-0.59,0.675-0.59
		l0.39-1.873L10.42,10.55z"/>
	<path fill-rule="evenodd" clip-rule="evenodd" fill="#0E5355" d="M12.265,5.625c0.655,0,1.187,0.531,1.187,1.187
		s-0.531,1.187-1.187,1.187s-1.187-0.531-1.187-1.187S11.609,5.625,12.265,5.625z"/>
</g>
</svg>
