<?xml version="1.0" encoding="utf-8"?>
<!-- Generator: Adobe Illustrator 15.0.0, SVG Export Plug-In . SVG Version: 6.00 Build 0)  -->
<!DOCTYPE svg PUBLIC "-//W3C//DTD SVG 1.1//EN" "http://www.w3.org/Graphics/SVG/1.1/DTD/svg11.dtd">
<svg version="1.1" id="Layer_1" xmlns="http://www.w3.org/2000/svg" xmlns:xlink="http://www.w3.org/1999/xlink" x="0px" y="0px"
	 width="1440px" height="800px" viewBox="0 0 1440 800" enable-background="new 0 0 1440 800" xml:space="preserve">
<path fill="#4ABCA0" d="M1003,305.5c-16.359,0-29.622,13.262-29.622,29.622c0,6.062,1.824,11.696,4.949,16.39l-0.253,0.017
	l26.863,32.101l24.815-34.825l-0.497,0.026c2.146-4.102,3.363-8.759,3.363-13.705C1032.622,318.762,1019.359,305.5,1003,305.5z"/>
<path fill="#4ABCA0" d="M576,333.896c-17.451,0-31.597,14.146-31.597,31.597c0,6.466,1.944,12.476,5.276,17.479l-0.269,0.018
	l28.655,34.241l22.363-31.704c0.976-1.188,1.862-2.445,2.657-3.77l1.185-1.677l-0.257,0.014c2.282-4.369,3.58-9.334,3.58-14.604
	C607.597,348.042,593.45,333.896,576,333.896z"/>
<path fill="#4ABCA0" d="M783,311.938c-17.014,0-30.807,13.796-30.807,30.81c0,6.305,1.896,12.164,5.146,17.046l-0.263,0.014
	l27.938,33.388l21.811-30.913c0.945-1.155,1.812-2.385,2.588-3.668l1.152-1.64l-0.25,0.017c2.228-4.264,3.49-9.104,3.49-14.24
	C813.807,325.73,800.014,311.938,783,311.938z"/>
<path fill="#FFFFFF" d="M781.932,358.432c-5.069,0-8.959-1.338-11.551-3.975c-3.269-3.328-3.234-7.477-3.229-7.652v-9.494h29.361
	l0.204,9.492C796.711,346.951,796.146,358.432,781.932,358.432z M768.3,338.463v8.354c-0.001,0.047-0.018,3.872,2.915,6.848
	c2.368,2.4,5.973,3.617,10.716,3.617c13.081,0,13.616-10.06,13.632-10.486l-0.179-8.33L768.3,338.463L768.3,338.463z"/>
<path fill="#FFFFFF" d="M793.893,353.768l-0.494-1.041c0.104-0.049,10.39-5.014,10.229-10.403c-0.042-1.476-0.529-2.566-1.442-3.254
	c-2.159-1.619-6.052-0.636-6.091-0.621l-0.292-1.115c0.183-0.047,4.461-1.141,7.069,0.812c1.211,0.908,1.854,2.306,1.908,4.146
	C804.959,348.428,794.344,353.553,793.893,353.768z"/>
<path fill="#FFFFFF" d="M794.604,358.814h-25.149v-1.152h25.149V358.814z"/>
<path fill="#FFFFFF" d="M777.814,331.471l-0.981-0.604l4.032-6.529l0.979,0.605L777.814,331.471z"/>
<path fill="#FFFFFF" d="M785.494,329.934l-0.981-0.604l4.032-6.527l0.981,0.605L785.494,329.934z"/>
<path fill="#FFFFFF" d="M1017.062,351.641H989.4v-27.664h27.662V351.641z M990.553,350.488h25.358v-25.359h-25.358V350.488z"/>
<path fill="#FFFFFF" d="M1008.777,323.303c-0.019-0.051-1.559-5.129-5.797-5.129c-4.241,0-5.579,5.062-5.596,5.11L996.271,323
	c0.015-0.06,1.58-5.978,6.709-5.978c5.107,0,6.83,5.717,6.899,5.959L1008.777,323.303z"/>
<path fill="#FFFFFF" d="M996.227,329.262c-1.654,0-2.349-1.396-2.479-2.137l1.133-0.209c0.023,0.123,0.269,1.193,1.353,1.193
	c1.03,0,1.217-0.968,1.239-1.16l1.146,0.143C998.521,327.842,997.906,329.262,996.227,329.262z"/>
<path fill="#FFFFFF" d="M1009.938,329.361c-1.654,0-2.35-1.396-2.481-2.138l1.133-0.211c0.023,0.123,0.269,1.193,1.353,1.193
	c1.03,0,1.218-0.965,1.241-1.16l1.146,0.146C1012.232,327.943,1011.616,329.361,1009.938,329.361z"/>
<path fill="#FFFFFF" d="M580.017,383.926c-7.272,0-13.019-2.297-16.611-6.639c-3.335-4.031-4.536-9.586-3.383-15.639
	c1.847-9.691,9.923-14.922,16.586-14.922c1.931,0,3.604,0.444,4.836,1.295c3.479,2.393,2.596,4.717,1.738,6.963
	c-0.501,1.312-1.019,2.674-0.859,4.256c0.179,1.787,1.587,2.315,4.062,3.102c2.324,0.734,5.215,1.65,6.656,4.699
	c1.578,3.342,1.229,7.811-0.869,11.121C590.503,380.791,587.043,383.926,580.017,383.926z M576.607,347.957
	c-6.17,0-13.655,4.879-15.377,13.922c-1.084,5.688,0.023,10.879,3.121,14.623c3.354,4.051,8.771,6.191,15.664,6.191
	c6.468,0,9.613-2.822,11.113-5.191c2.173-3.428,1.965-7.459,0.796-9.936c-1.211-2.562-3.603-3.32-5.915-4.056
	c-2.285-0.723-4.646-1.471-4.914-4.147c-0.188-1.873,0.409-3.438,0.936-4.816c0.842-2.207,1.396-3.666-1.287-5.512
	C579.72,348.33,578.288,347.957,576.607,347.957z"/>
<path fill="#FFFFFF" d="M571.938,360.225c-2.163,0-3.925-1.76-3.925-3.924s1.762-3.926,3.925-3.926s3.925,1.762,3.925,3.926
	S574.101,360.225,571.938,360.225z M571.938,353.607c-1.484,0-2.692,1.207-2.692,2.69c0,1.484,1.208,2.693,2.692,2.693
	s2.692-1.209,2.692-2.693C574.63,354.814,573.422,353.607,571.938,353.607z"/>
<path fill="#FFFFFF" d="M569.566,376.568c-1.801,0-3.264-1.463-3.264-3.265c0-1.799,1.463-3.264,3.264-3.264
	c1.8,0,3.263,1.465,3.263,3.264S571.366,376.568,569.566,376.568z M569.566,371.275c-1.12,0-2.031,0.907-2.031,2.028
	c0,1.119,0.911,2.031,2.031,2.031c1.119,0,2.03-0.912,2.03-2.031S570.688,371.275,569.566,371.275z"/>
<path fill="#FFFFFF" d="M578.77,379.832c-1.799,0-3.262-1.465-3.262-3.264s1.463-3.265,3.262-3.265c1.8,0,3.264,1.463,3.264,3.265
	C582.032,378.367,580.568,379.832,578.77,379.832z M578.77,374.537c-1.118,0-2.029,0.912-2.029,2.031
	c0,1.121,0.911,2.028,2.029,2.028c1.119,0,2.031-0.907,2.031-2.028C580.801,375.449,579.889,374.537,578.77,374.537z"/>
<path fill="#FFFFFF" d="M586.311,374.23c-1.799,0-3.262-1.468-3.262-3.267s1.463-3.262,3.262-3.262c1.801,0,3.264,1.463,3.264,3.262
	S588.11,374.23,586.311,374.23z M586.311,368.936c-1.118,0-2.029,0.912-2.029,2.031c0,1.121,0.911,2.031,2.029,2.031
	c1.119,0,2.031-0.91,2.031-2.031C588.342,369.848,587.43,368.936,586.311,368.936z"/>
</svg>
