<?xml version="1.0" encoding="utf-8"?>
<!-- Generator: Adobe Illustrator 15.0.0, SVG Export Plug-In . SVG Version: 6.00 Build 0)  -->
<!DOCTYPE svg PUBLIC "-//W3C//DTD SVG 1.1//EN" "http://www.w3.org/Graphics/SVG/1.1/DTD/svg11.dtd">
<svg version="1.1" id="Layer_1" xmlns="http://www.w3.org/2000/svg" xmlns:xlink="http://www.w3.org/1999/xlink" x="0px" y="0px"
	 width="1440px" height="800px" viewBox="0 0 1440 800" enable-background="new 0 0 1440 800" xml:space="preserve">
<path fill="#4ABCA0" d="M422.997,440.565c-34.552,0-62.562,28.01-62.562,62.562c0,12.803,3.853,24.702,10.452,34.616l-0.534,0.028
	l56.736,67.796l45.03-63.726c1.378-1.746,2.667-3.564,3.854-5.456l3.089-4.37l-0.596,0.03c4.521-8.649,7.09-18.481,7.09-28.921
	C485.559,468.575,457.549,440.565,422.997,440.565z"/>
<path fill="#FFFFFF" d="M421.415,527.385c-9.521,0-16.815-2.51-21.68-7.459c-6.136-6.244-6.073-14.033-6.066-14.359v-17.818h55.112
	l0.382,17.812C449.154,505.838,448.096,527.385,421.415,527.385z M395.831,489.908v15.674c-0.002,0.09-0.034,7.27,5.471,12.854
	c4.445,4.506,11.21,6.787,20.114,6.787c24.551,0,25.556-18.875,25.585-19.68l-0.336-15.635H395.831z"/>
<path fill="#FFFFFF" d="M443.862,518.631l-0.93-1.953c0.194-0.092,19.5-9.408,19.202-19.531c-0.08-2.762-0.992-4.814-2.711-6.104
	c-4.054-3.041-11.354-1.188-11.429-1.168l-0.547-2.092c0.338-0.088,8.374-2.143,13.269,1.523c2.274,1.705,3.479,4.32,3.581,7.775
	C464.635,508.611,444.711,518.227,443.862,518.631z"/>
<path fill="#FFFFFF" d="M445.199,528.105h-47.207v-2.162h47.207V528.105z"/>
<path fill="#FFFFFF" d="M413.688,476.781l-1.841-1.135l7.567-12.254l1.841,1.137L413.688,476.781z"/>
<path fill="#FFFFFF" d="M428.101,473.898l-1.842-1.137l7.568-12.252l1.841,1.137L428.101,473.898z"/>
</svg>
