<?xml version="1.0" encoding="utf-8"?>
<!-- Generator: Adobe Illustrator 15.0.0, SVG Export Plug-In . SVG Version: 6.00 Build 0)  -->
<!DOCTYPE svg PUBLIC "-//W3C//DTD SVG 1.1//EN" "http://www.w3.org/Graphics/SVG/1.1/DTD/svg11.dtd">
<svg version="1.1" id="Layer_1" xmlns="http://www.w3.org/2000/svg" xmlns:xlink="http://www.w3.org/1999/xlink" x="0px" y="0px"
	 width="1440px" height="800px" viewBox="0 0 1440 800" enable-background="new 0 0 1440 800" xml:space="preserve">
<path fill="#4ABCA0" d="M943.999,488.499c-21.595,0-39.101,17.507-39.101,39.102c0,8.001,2.405,15.438,6.529,21.638l-0.334,0.018
	l35.461,42.373l27.934-39.556c1.033-1.286,1.99-2.638,2.854-4.046l1.672-2.368l-0.347,0.019c2.824-5.404,4.433-11.552,4.433-18.072
	C983.102,506.006,965.594,488.499,943.999,488.499z"/>
<path fill="#FFFFFF" d="M930.709,551.16c-5.072,0-9.198-3.293-9.198-7.34c0-4.045,4.126-7.338,9.198-7.338
	c5.071,0,9.196,3.293,9.196,7.338C939.905,547.867,935.78,551.16,930.709,551.16z M930.709,537.941c-4.268,0-7.74,2.637-7.74,5.879
	c0,3.244,3.476,5.883,7.74,5.883c4.268,0,7.738-2.639,7.738-5.883C938.447,540.578,934.977,537.941,930.709,537.941z"/>
<path fill="#FFFFFF" d="M953.843,547.441c-5.071,0-9.196-3.291-9.196-7.341c0-4.047,4.125-7.338,9.196-7.338
	c5.072,0,9.197,3.291,9.197,7.338C963.04,544.15,958.915,547.441,953.843,547.441z M953.843,534.223
	c-4.267,0-7.739,2.642-7.739,5.881c0,3.242,3.476,5.884,7.739,5.884c4.271,0,7.739-2.642,7.739-5.884
	C961.582,536.862,958.11,534.223,953.843,534.223z"/>
<path fill="#FFFFFF" d="M939.905,543.82h-1.458v-34.494l24.593-3.953v34.729h-1.458v-33.018l-21.677,3.482V543.82z"/>
<path fill="#FFFFFF" d="M939.492,518.516l-0.219-1.438l20.445-3.103l0.223,1.441L939.492,518.516z"/>
</svg>
