<?xml version="1.0" encoding="utf-8"?>
<!-- Generator: Adobe Illustrator 15.0.0, SVG Export Plug-In . SVG Version: 6.00 Build 0)  -->
<!DOCTYPE svg PUBLIC "-//W3C//DTD SVG 1.1//EN" "http://www.w3.org/Graphics/SVG/1.1/DTD/svg11.dtd">
<svg version="1.1" id="Layer_1" xmlns="http://www.w3.org/2000/svg" xmlns:xlink="http://www.w3.org/1999/xlink" x="0px" y="0px"
	 width="1440px" height="800px" viewBox="0 0 1440 800" enable-background="new 0 0 1440 800" xml:space="preserve">
<path fill="#4ABCA0" d="M380.067,346.73l26.472-37.147l-0.529,0.028c2.287-4.373,3.587-9.345,3.587-14.619
	c0-17.451-14.146-31.598-31.597-31.598s-31.597,14.146-31.597,31.598c0,6.466,1.946,12.475,5.278,17.479l-0.269,0.017
	L380.067,346.73z"/>
<path fill="#4ABCA0" d="M1210.604,324.599l25.219,30.135l23.295-32.689l-0.465,0.024c2.012-3.851,3.154-8.224,3.154-12.864
	c0-15.356-12.447-27.805-27.807-27.805c-15.357,0-27.805,12.446-27.805,27.805c0,5.688,1.712,10.979,4.646,15.385L1210.604,324.599z
	"/>
<path fill="#FFFFFF" d="M378.86,301.947l-13.688-21.252h26.476L378.86,301.947z M367.579,282.007l11.244,17.458l10.504-17.458
	H367.579z"/>
<path fill="#FFFFFF" d="M379.498,313.5h-1.312v-12.794h1.312V313.5z"/>
<path fill="#FFFFFF" d="M384.91,313.5h-12.302v-1.312h12.302V313.5z"/>
<path fill="#FFFFFF" d="M386.277,289.06h-15.146v-1.312h15.146V289.06z"/>
<path fill="#FFFFFF" d="M1239.14,313.741c-0.729,0-1.202-0.029-1.275-0.034l0.062-1.006c0.077,0.007,7.595,0.459,10.896-2.562
	c0.98-0.897,1.477-1.987,1.508-3.333c0.04-1.715-0.438-3.086-1.426-4.07c-1.838-1.843-4.863-1.793-4.904-1.796l-0.025-1.011
	c0.146,0,3.486-0.062,5.639,2.085c1.19,1.19,1.771,2.812,1.728,4.814c-0.037,1.607-0.655,2.973-1.837,4.054
	C1246.724,313.425,1241.545,313.741,1239.14,313.741z"/>
<path fill="#FFFFFF" d="M1243.354,324.797h-17.45l0.062-11.461c-1.162-0.12-4.101-0.621-5.969-2.676
	c-1.182-1.294-1.712-2.964-1.587-4.963c0.124-1.99,0.805-3.522,2.021-4.557c1.499-1.27,3.355-1.399,4.188-1.394
	c0.676-1.64,3.952-8.058,13.054-5.979c2.684,0.612,4.572,1.901,5.616,3.828c1.845,3.409,0.354,7.541,0.288,7.715l-0.945-0.35
	c0.016-0.039,1.396-3.888-0.232-6.891c-0.896-1.658-2.562-2.776-4.948-3.321c-9.434-2.152-11.906,5.345-12.007,5.666l-0.123,0.391
	l-0.409-0.04c-0.021-0.002-2.238-0.207-3.83,1.147c-0.997,0.848-1.56,2.141-1.663,3.842c-0.107,1.714,0.337,3.134,1.323,4.218
	c2.025,2.235,5.713,2.389,5.75,2.39l0.486,0.016l-0.062,11.408h15.432v-10.753h1.01v11.763L1243.354,324.797L1243.354,324.797z"/>
</svg>
