<?xml version="1.0" encoding="utf-8"?>
<!-- Generator: Adobe Illustrator 15.0.0, SVG Export Plug-In . SVG Version: 6.00 Build 0)  -->
<!DOCTYPE svg PUBLIC "-//W3C//DTD SVG 1.1//EN" "http://www.w3.org/Graphics/SVG/1.1/DTD/svg11.dtd">
<svg version="1.1" id="Layer_2" xmlns="http://www.w3.org/2000/svg" xmlns:xlink="http://www.w3.org/1999/xlink" x="0px" y="0px"
	 width="1228px" height="960px" viewBox="0 0 1228 960" enable-background="new 0 0 1228 960" xml:space="preserve">
<path fill="#7A8097" d="M437.001,391.98c-11.343,0-20.538,9.195-20.538,20.538c0,4.204,1.268,8.108,3.435,11.364l-0.179,0.009
	l18.625,22.257l14.356-20.403c0.74-0.877,1.397-1.824,1.983-2.818l0.65-0.924l-0.13,0.007c1.484-2.84,2.335-6.064,2.335-9.491
	C457.539,401.175,448.344,391.98,437.001,391.98z"/>
<path fill="#7A8097" d="M650.001,393.98c-11.343,0-20.538,9.195-20.538,20.538c0,4.204,1.268,8.108,3.436,11.363l-0.18,0.01
	l18.626,22.256l14.357-20.404c0.738-0.876,1.394-1.82,1.979-2.812l0.653-0.929l-0.131,0.007c1.484-2.84,2.335-6.064,2.335-9.491
	C670.539,403.175,661.344,393.98,650.001,393.98z"/>
<path fill="#7A8097" d="M911.001,409.73c-11.866,0-21.486,9.619-21.486,21.486c0,4.397,1.326,8.482,3.594,11.888l-0.188,0.01
	l19.485,23.284l18.001-25.26l-0.369,0.02c1.557-2.974,2.448-6.352,2.448-9.941C932.486,419.349,922.867,409.73,911.001,409.73z"/>
<path fill="#F2DBB4" d="M655.598,417.518h-11.451l-0.959-5.597h13.769L655.598,417.518z M644.837,416.699h10.116l0.962-3.959
	h-11.757L644.837,416.699z"/>
<path fill="#F2DBB4" d="M653.653,428.505h-7.332l-1.621-11.271l0.812-0.117l1.519,10.568h5.908l1.453-10.566l0.812,0.111
	L653.653,428.505z"/>
<path fill="#F2DBB4" d="M643.348,412.58c-0.076-0.099-1.862-2.462-1.418-4.956c0.231-1.298,1.02-2.38,2.343-3.216
	c1.587-1.001,3.159-1.27,4.673-0.796c3.312,1.036,5.13,5.241,5.205,5.419l-0.753,0.32c-0.018-0.041-1.749-4.038-4.698-4.958
	c-1.275-0.397-2.616-0.16-3.989,0.708c-1.12,0.707-1.784,1.604-1.974,2.667c-0.382,2.142,1.245,4.292,1.261,4.313L643.348,412.58z"
	/>
<path fill="#F2DBB4" d="M656.188,412.797L656,412c0.057-0.014,1.461-0.396,1.597-2.494c0.116-1.812-1.721-2.664-1.739-2.672
	l-0.325-0.146l0.102-0.343c0.036-0.125,0.867-3.065-1.623-4.222c-3.431-1.593-5.325,1.857-5.404,2.006l-0.722-0.386
	c0.022-0.042,2.349-4.278,6.471-2.362c2.314,1.074,2.441,3.492,2.146,4.872c0.639,0.38,2.033,1.433,1.913,3.306
	C658.238,412.283,656.271,412.777,656.188,412.797z"/>
<path fill="#F2DBB4" d="M433.098,420.907h-4.095v-15.795h4.095V420.907z M429.705,420.205h2.691v-14.391h-2.691V420.205z"/>
<path fill="#F2DBB4" d="M429.705,418.684h-2.925v-11.349h2.925V418.684z M427.482,417.982h1.521v-9.945h-1.521V417.982z"/>
<path fill="#F2DBB4" d="M445.149,420.907h-4.095v-15.795h4.095V420.907z M441.756,420.205h2.691v-14.391h-2.691V420.205z"/>
<path fill="#F2DBB4" d="M447.373,418.684h-2.925v-11.349h2.925V418.684z M445.149,417.982h1.521v-9.945h-1.521V417.982z"/>
<path fill="#F2DBB4" d="M441.464,413.361h-8.658v-0.702h8.658V413.361z"/>
<path fill="#F2DBB4" d="M427.014,413.361h-2.808v-0.702h2.808V413.361z"/>
<path fill="#F2DBB4" d="M449.946,413.361h-2.808v-0.702h2.808V413.361z"/>
<path fill="#F2DBB4" d="M911.434,440.333c-3.174,0-5.605-0.836-7.228-2.486c-2.045-2.082-2.023-4.678-2.021-4.788v-5.939h18.37
	l0.128,5.938C920.68,433.151,920.327,440.333,911.434,440.333z M902.905,427.841v5.225c-0.001,0.029-0.012,2.423,1.823,4.284
	c1.481,1.501,3.736,2.262,6.705,2.262c8.184,0,8.519-6.292,8.528-6.56l-0.112-5.212H902.905z"/>
<path fill="#F2DBB4" d="M918.916,437.416l-0.31-0.651c0.064-0.031,6.5-3.136,6.4-6.511c-0.027-0.92-0.331-1.605-0.904-2.035
	c-1.351-1.014-3.785-0.396-3.81-0.39l-0.183-0.697c0.113-0.029,2.792-0.713,4.424,0.509c0.758,0.568,1.159,1.439,1.193,2.592
	C925.84,434.075,919.198,437.281,918.916,437.416z"/>
<path fill="#F2DBB4" d="M919.361,440.573h-15.735v-0.721h15.735V440.573z"/>
<path fill="#F2DBB4" d="M908.857,423.465l-0.614-0.378l2.523-4.084l0.613,0.378L908.857,423.465z"/>
<path fill="#F2DBB4" d="M913.662,422.504l-0.614-0.379l2.522-4.084l0.614,0.379L913.662,422.504z"/>
</svg>
