<?xml version="1.0" encoding="utf-8"?>
<!-- Generator: Adobe Illustrator 15.0.0, SVG Export Plug-In . SVG Version: 6.00 Build 0)  -->
<!DOCTYPE svg PUBLIC "-//W3C//DTD SVG 1.1//EN" "http://www.w3.org/Graphics/SVG/1.1/DTD/svg11.dtd">
<svg version="1.1" id="Layer_2" xmlns="http://www.w3.org/2000/svg" xmlns:xlink="http://www.w3.org/1999/xlink" x="0px" y="0px"
	 width="1228px" height="960px" viewBox="0 0 1228 960" enable-background="new 0 0 1228 960" xml:space="preserve">
<path fill="#7A8097" d="M731.999,648.499c-21.595,0-39.101,17.507-39.101,39.102c0,8.001,2.408,15.438,6.532,21.635l-0.334,0.018
	l35.461,42.373l27.931-39.556c1.033-1.286,1.99-2.635,2.856-4.046l1.672-2.368l-0.347,0.019c2.824-5.407,4.431-11.552,4.431-18.074
	C771.101,666.006,753.594,648.499,731.999,648.499z"/>
<path fill="#F2DBB4" d="M718.709,711.16c-5.072,0-9.198-3.293-9.198-7.34c0-4.045,4.126-7.338,9.198-7.338
	c5.071,0,9.196,3.293,9.196,7.338C727.905,707.867,723.78,711.16,718.709,711.16z M718.709,697.941c-4.268,0-7.74,2.637-7.74,5.879
	c0,3.244,3.473,5.883,7.74,5.883c4.267,0,7.738-2.639,7.738-5.883C726.447,700.578,722.976,697.941,718.709,697.941z"/>
<path fill="#F2DBB4" d="M741.843,707.441c-5.071,0-9.197-3.291-9.197-7.338s4.126-7.338,9.197-7.338
	c5.072,0,9.197,3.291,9.197,7.338S746.915,707.441,741.843,707.441z M741.843,694.223c-4.267,0-7.739,2.639-7.739,5.881
	s3.473,5.881,7.739,5.881c4.268,0,7.739-2.639,7.739-5.881S746.11,694.223,741.843,694.223z"/>
<path fill="#F2DBB4" d="M727.905,703.82h-1.458v-34.494l24.593-3.953v34.73h-1.458v-33.018l-21.677,3.482V703.82z"/>
<path fill="#F2DBB4" d="M727.492,678.516l-0.219-1.439l20.448-3.1l0.22,1.441L727.492,678.516z"/>
</svg>
