<?xml version="1.0" encoding="utf-8"?>
<!-- Generator: Adobe Illustrator 15.0.0, SVG Export Plug-In . SVG Version: 6.00 Build 0)  -->
<!DOCTYPE svg PUBLIC "-//W3C//DTD SVG 1.1//EN" "http://www.w3.org/Graphics/SVG/1.1/DTD/svg11.dtd">
<svg version="1.1" id="Layer_2" xmlns="http://www.w3.org/2000/svg" xmlns:xlink="http://www.w3.org/1999/xlink" x="0px" y="0px"
	 width="1228px" height="960px" viewBox="0 0 1228 960" enable-background="new 0 0 1228 960" xml:space="preserve">
<path fill="#7A8097" d="M170.067,506.73l26.472-37.147l-0.529,0.028c2.287-4.373,3.587-9.342,3.587-14.619
	c0-17.451-14.146-31.597-31.597-31.597c-17.451,0-31.597,14.146-31.597,31.597c0,6.466,1.946,12.475,5.278,17.482l-0.269,0.014
	L170.067,506.73z"/>
<path fill="#7A8097" d="M1000.604,484.599l25.216,30.132l23.295-32.689l-0.465,0.024c2.012-3.848,3.156-8.221,3.156-12.864
	c0-15.356-12.449-27.805-27.806-27.805s-27.805,12.449-27.805,27.805c0,5.69,1.712,10.979,4.646,15.385L1000.604,484.599z"/>
<path fill="#F2DBB4" d="M168.86,461.947l-13.688-21.252h26.476L168.86,461.947z M157.579,442.007l11.244,17.458l10.504-17.458
	H157.579z"/>
<path fill="#F2DBB4" d="M169.498,473.5h-1.312v-12.794h1.312V473.5z"/>
<path fill="#F2DBB4" d="M174.91,473.5h-12.302v-1.312h12.302V473.5z"/>
<path fill="#F2DBB4" d="M176.277,449.06h-15.146v-1.312h15.146V449.06z"/>
<path fill="#F2DBB4" d="M1029.14,473.741c-0.729,0-1.203-0.029-1.278-0.034l0.065-1.006c0.077,0.007,7.595,0.459,10.893-2.56
	c0.983-0.9,1.477-1.99,1.508-3.333c0.04-1.715-0.439-3.086-1.426-4.073c-1.838-1.84-4.863-1.793-4.904-1.796l-0.025-1.008
	c0.146,0,3.486-0.062,5.637,2.085c1.192,1.19,1.773,2.81,1.727,4.814c-0.037,1.609-0.655,2.973-1.837,4.054
	C1036.724,473.425,1031.545,473.741,1029.14,473.741z"/>
<path fill="#F2DBB4" d="M1033.354,484.797h-17.453l0.062-11.461c-1.162-0.12-4.101-0.621-5.969-2.676
	c-1.179-1.294-1.712-2.964-1.587-4.963c0.124-1.99,0.805-3.522,2.024-4.554c1.499-1.27,3.355-1.402,4.185-1.394
	c0.676-1.64,3.952-8.058,13.054-5.978c2.684,0.613,4.572,1.902,5.616,3.829c1.845,3.409,0.354,7.541,0.288,7.714l-0.945-0.349
	c0.015-0.039,1.396-3.888-0.232-6.891c-0.899-1.658-2.565-2.776-4.951-3.321c-9.431-2.152-11.906,5.345-12.006,5.666l-0.123,0.391
	l-0.41-0.04c-0.021-0.002-2.238-0.207-3.83,1.147c-0.997,0.848-1.557,2.141-1.663,3.842c-0.107,1.714,0.337,3.134,1.323,4.218
	c2.028,2.235,5.713,2.386,5.75,2.387l0.489,0.016l-0.062,11.408h15.432v-10.753h1.008V484.797z"/>
</svg>
