<?xml version="1.0" encoding="utf-8"?>
<!-- Generator: Adobe Illustrator 15.0.0, SVG Export Plug-In . SVG Version: 6.00 Build 0)  -->
<!DOCTYPE svg PUBLIC "-//W3C//DTD SVG 1.1//EN" "http://www.w3.org/Graphics/SVG/1.1/DTD/svg11.dtd">
<svg version="1.1" id="Layer_2" xmlns="http://www.w3.org/2000/svg" xmlns:xlink="http://www.w3.org/1999/xlink" x="0px" y="0px"
	 width="1228px" height="960px" viewBox="0 0 1228 960" enable-background="new 0 0 1228 960" xml:space="preserve">
<path fill="#7A8097" d="M791,466c-16.359,0-29.622,13.262-29.622,29.622c0,6.062,1.824,11.696,4.949,16.39l-0.253,0.014
	l26.864,32.101l24.817-34.825l-0.497,0.026c2.145-4.1,3.363-8.759,3.363-13.705C820.622,479.262,807.359,466,791,466z"/>
<path fill="#7A8097" d="M364,494.396c-17.451,0-31.597,14.146-31.597,31.597c0,6.466,1.946,12.476,5.278,17.482l-0.269,0.015
	l28.655,34.241l22.365-31.704c0.974-1.187,1.862-2.445,2.657-3.767l1.183-1.677l-0.255,0.014c2.282-4.369,3.58-9.334,3.58-14.604
	C395.597,508.542,381.45,494.396,364,494.396z"/>
<path fill="#7A8097" d="M571,472.438c-17.014,0-30.807,13.793-30.807,30.807c0,6.305,1.897,12.164,5.146,17.046l-0.263,0.014
	l27.938,33.385l21.808-30.913c0.948-1.155,1.813-2.382,2.588-3.668l1.154-1.637l-0.249,0.014c2.225-4.261,3.49-9.102,3.49-14.24
	C601.807,486.23,588.014,472.438,571,472.438z"/>
<path fill="#F2DBB4" d="M569.932,518.932c-5.072,0-8.959-1.338-11.551-3.975c-3.269-3.328-3.235-7.477-3.232-7.652v-9.494h29.364
	l0.204,9.492C584.711,507.451,584.147,518.932,569.932,518.932z M556.3,498.963v8.352c-0.001,0.047-0.018,3.873,2.915,6.848
	c2.368,2.4,5.972,3.617,10.716,3.617c13.081,0,13.616-10.057,13.632-10.486l-0.179-8.33H556.3z"/>
<path fill="#F2DBB4" d="M581.892,514.268l-0.495-1.041c0.104-0.049,10.389-5.014,10.23-10.406c-0.042-1.473-0.529-2.566-1.444-3.254
	c-2.16-1.619-6.05-0.633-6.089-0.621l-0.292-1.115c0.18-0.047,4.461-1.141,7.069,0.812c1.211,0.908,1.854,2.303,1.908,4.143
	C592.959,508.928,582.344,514.053,581.892,514.268z"/>
<path fill="#F2DBB4" d="M582.604,519.314h-25.152v-1.152h25.152V519.314z"/>
<path fill="#F2DBB4" d="M565.814,491.971l-0.981-0.605l4.032-6.529l0.981,0.605L565.814,491.971z"/>
<path fill="#F2DBB4" d="M573.494,490.434l-0.981-0.605l4.032-6.527l0.981,0.605L573.494,490.434z"/>
<path fill="#F2DBB4" d="M805.063,512.141H777.4v-27.664h27.663V512.141z M778.553,510.988h25.358v-25.359h-25.358V510.988z"/>
<path fill="#F2DBB4" d="M796.777,483.803c-0.016-0.051-1.556-5.129-5.797-5.129s-5.579,5.059-5.593,5.11l-1.116-0.284
	c0.015-0.06,1.582-5.978,6.709-5.978c5.11,0,6.832,5.717,6.902,5.959L796.777,483.803z"/>
<path fill="#F2DBB4" d="M784.227,489.762c-1.657,0-2.349-1.398-2.482-2.137l1.133-0.209c0.023,0.123,0.266,1.193,1.35,1.193
	c1.033,0,1.217-0.965,1.242-1.16l1.144,0.143C786.521,488.342,785.906,489.762,784.227,489.762z"/>
<path fill="#F2DBB4" d="M797.937,489.861c-1.656,0-2.349-1.396-2.483-2.135l1.133-0.211c0.023,0.123,0.266,1.193,1.351,1.193
	c1.032,0,1.217-0.965,1.243-1.16l1.143,0.143C800.232,488.443,799.616,489.861,797.937,489.861z"/>
<path fill="#F2DBB4" d="M368.017,544.426c-7.274,0-13.019-2.297-16.613-6.639c-3.335-4.031-4.536-9.586-3.383-15.639
	c1.847-9.691,9.923-14.922,16.586-14.922c1.931,0,3.604,0.447,4.836,1.295c3.481,2.393,2.596,4.717,1.74,6.963
	c-0.501,1.314-1.019,2.674-0.861,4.256c0.179,1.787,1.587,2.318,4.062,3.102c2.324,0.734,5.215,1.65,6.656,4.699
	c1.578,3.342,1.229,7.811-0.869,11.121C378.503,541.291,375.043,544.426,368.017,544.426z M364.607,508.457
	c-6.169,0-13.655,4.879-15.377,13.922c-1.083,5.688,0.025,10.879,3.123,14.623c3.352,4.051,8.769,6.191,15.664,6.191
	c6.466,0,9.613-2.822,11.113-5.191c2.173-3.428,1.965-7.459,0.796-9.936c-1.211-2.562-3.603-3.32-5.915-4.053
	c-2.285-0.723-4.646-1.471-4.914-4.15c-0.188-1.873,0.409-3.438,0.934-4.816c0.842-2.207,1.397-3.666-1.287-5.512
	C367.72,508.83,366.288,508.457,364.607,508.457z"/>
<path fill="#F2DBB4" d="M359.937,520.725c-2.164,0-3.924-1.76-3.924-3.924s1.76-3.926,3.924-3.926s3.924,1.762,3.924,3.926
	S362.101,520.725,359.937,520.725z M359.937,514.107c-1.485,0-2.693,1.207-2.693,2.693c0,1.484,1.208,2.693,2.693,2.693
	s2.693-1.209,2.693-2.693C362.63,515.314,361.422,514.107,359.937,514.107z"/>
<path fill="#F2DBB4" d="M357.566,537.068c-1.799,0-3.262-1.463-3.262-3.262s1.463-3.264,3.262-3.264c1.8,0,3.263,1.465,3.263,3.264
	S359.366,537.068,357.566,537.068z M357.566,531.775c-1.12,0-2.031,0.91-2.031,2.031c0,1.119,0.911,2.031,2.031,2.031
	c1.121,0,2.032-0.912,2.032-2.031C359.598,532.686,358.687,531.775,357.566,531.775z"/>
<path fill="#F2DBB4" d="M366.77,540.332c-1.799,0-3.262-1.465-3.262-3.264s1.463-3.262,3.262-3.262c1.798,0,3.262,1.463,3.262,3.262
	S368.568,540.332,366.77,540.332z M366.77,535.037c-1.12,0-2.031,0.912-2.031,2.031c0,1.121,0.911,2.031,2.031,2.031
	c1.119,0,2.031-0.91,2.031-2.031C368.801,535.949,367.889,535.037,366.77,535.037z"/>
<path fill="#F2DBB4" d="M374.311,534.73c-1.799,0-3.262-1.465-3.262-3.264s1.463-3.262,3.262-3.262s3.262,1.463,3.262,3.262
	S376.11,534.73,374.311,534.73z M374.311,529.436c-1.12,0-2.031,0.912-2.031,2.031c0,1.121,0.911,2.031,2.031,2.031
	c1.119,0,2.031-0.91,2.031-2.031C376.342,530.348,375.43,529.436,374.311,529.436z"/>
</svg>
