<?xml version="1.0" encoding="utf-8"?>
<!-- Generator: Adobe Illustrator 15.0.0, SVG Export Plug-In . SVG Version: 6.00 Build 0)  -->
<!DOCTYPE svg PUBLIC "-//W3C//DTD SVG 1.1//EN" "http://www.w3.org/Graphics/SVG/1.1/DTD/svg11.dtd">
<svg version="1.1" id="Layer_2" xmlns="http://www.w3.org/2000/svg" xmlns:xlink="http://www.w3.org/1999/xlink" x="0px" y="0px"
	 width="1228px" height="960px" viewBox="0 0 1228 960" enable-background="new 0 0 1228 960" xml:space="preserve">
<path fill="#7A8097" d="M206.997,716.565c-34.552,0-62.562,28.01-62.562,62.562c0,12.803,3.853,24.702,10.452,34.616l-0.534,0.028
	l56.736,67.796l45.03-63.724c1.378-1.746,2.667-3.566,3.855-5.456l3.089-4.371l-0.596,0.031c4.521-8.651,7.09-18.483,7.09-28.921
	C269.559,744.575,241.549,716.565,206.997,716.565z"/>
<path fill="#F2DBB4" d="M205.415,803.385c-9.521,0-16.815-2.51-21.68-7.459c-6.136-6.244-6.073-14.033-6.066-14.361v-17.818h55.112
	l0.382,17.812C233.154,781.838,232.096,803.385,205.415,803.385z M179.831,765.908v15.674c-0.002,0.09-0.034,7.27,5.471,12.854
	c4.445,4.504,11.21,6.787,20.114,6.787c24.551,0,25.556-18.875,25.585-19.68l-0.336-15.635H179.831z"/>
<path fill="#F2DBB4" d="M227.862,794.631l-0.929-1.953c0.194-0.092,19.5-9.408,19.202-19.531c-0.08-2.762-0.992-4.816-2.711-6.105
	c-4.054-3.041-11.355-1.188-11.429-1.168l-0.547-2.092c0.338-0.088,8.374-2.141,13.269,1.525c2.274,1.705,3.479,4.32,3.581,7.775
	C248.635,784.611,228.711,794.227,227.862,794.631z"/>
<path fill="#F2DBB4" d="M229.199,804.105h-47.207v-2.162h47.207V804.105z"/>
<path fill="#F2DBB4" d="M197.688,752.781l-1.841-1.135l7.567-12.252l1.841,1.135L197.688,752.781z"/>
<path fill="#F2DBB4" d="M212.101,749.898l-1.842-1.135l7.568-12.252l1.841,1.135L212.101,749.898z"/>
</svg>
