<?xml version="1.0" encoding="utf-8"?>
<!-- Generator: Adobe Illustrator 15.0.0, SVG Export Plug-In . SVG Version: 6.00 Build 0)  -->
<!DOCTYPE svg PUBLIC "-//W3C//DTD SVG 1.1//EN" "http://www.w3.org/Graphics/SVG/1.1/DTD/svg11.dtd">
<svg version="1.1" id="Layer_1" xmlns="http://www.w3.org/2000/svg" xmlns:xlink="http://www.w3.org/1999/xlink" x="0px" y="0px"
	 width="1440px" height="800px" viewBox="0 0 1440 800" enable-background="new 0 0 1440 800" xml:space="preserve">
<path fill="#4ABCA0" d="M649.001,229.48c-11.343,0-20.538,9.192-20.538,20.535c0,4.204,1.271,8.108,3.436,11.364l-0.18,0.009
	l18.625,22.26l14.356-20.403c0.739-0.877,1.396-1.824,1.98-2.818l0.65-0.924l-0.13,0.007c1.482-2.84,2.335-6.062,2.335-9.49
	C669.539,238.675,660.344,229.48,649.001,229.48z"/>
<path fill="#4ABCA0" d="M862.001,231.48c-11.343,0-20.538,9.192-20.538,20.535c0,4.204,1.268,8.108,3.436,11.363l-0.18,0.01
	l18.626,22.259l14.357-20.404c0.737-0.876,1.394-1.82,1.979-2.812l0.653-0.929l-0.131,0.007c1.481-2.84,2.335-6.062,2.335-9.491
	C882.539,240.675,873.344,231.48,862.001,231.48z"/>
<path fill="#4ABCA0" d="M1123.001,247.23c-11.866,0-21.486,9.616-21.486,21.483c0,4.397,1.326,8.482,3.597,11.89l-0.188,0.011
	l19.485,23.284l18.001-25.263l-0.369,0.021c1.557-2.977,2.448-6.354,2.448-9.941C1144.486,256.849,1134.867,247.23,1123.001,247.23z
	"/>
<path fill="#FFFFFF" d="M867.598,255.018h-11.448l-0.959-5.597h13.769L867.598,255.018z M856.837,254.199h10.116l0.962-3.959
	h-11.757L856.837,254.199z"/>
<path fill="#FFFFFF" d="M865.653,266.005h-7.332l-1.621-11.271l0.812-0.117l1.521,10.565h5.908l1.451-10.563l0.812,0.111
	L865.653,266.005z"/>
<path fill="#FFFFFF" d="M855.348,250.08c-0.073-0.099-1.859-2.462-1.418-4.956c0.231-1.298,1.021-2.38,2.344-3.216
	c1.589-1.001,3.158-1.271,4.675-0.796c3.312,1.036,5.13,5.238,5.205,5.419l-0.755,0.317c-0.019-0.041-1.747-4.036-4.696-4.958
	c-1.275-0.396-2.616-0.157-3.989,0.708c-1.12,0.707-1.784,1.604-1.974,2.667c-0.384,2.145,1.243,4.292,1.261,4.313L855.348,250.08z"
	/>
<path fill="#FFFFFF" d="M868.188,250.297L868,249.5c0.057-0.014,1.461-0.396,1.597-2.494c0.116-1.812-1.721-2.664-1.736-2.672
	l-0.325-0.146l0.102-0.346c0.036-0.125,0.867-3.062-1.623-4.222c-3.431-1.593-5.324,1.855-5.401,2.006l-0.725-0.386
	c0.022-0.042,2.352-4.278,6.474-2.362c2.312,1.074,2.438,3.492,2.146,4.872c0.64,0.38,2.033,1.435,1.913,3.306
	C870.238,249.783,868.271,250.277,868.188,250.297z"/>
<path fill="#FFFFFF" d="M645.098,258.407h-4.095v-15.795h4.095V258.407z M641.705,257.705h2.691v-14.391h-2.691V257.705z"/>
<path fill="#FFFFFF" d="M641.705,256.184h-2.925v-11.349h2.925V256.184z M639.482,255.482h1.521v-9.945h-1.521V255.482z"/>
<path fill="#FFFFFF" d="M657.149,258.407h-4.098v-15.795h4.098V258.407z M653.756,257.705h2.691v-14.391h-2.691V257.705z"/>
<path fill="#FFFFFF" d="M659.373,256.184h-2.925v-11.349h2.925V256.184z M657.149,255.482h1.521v-9.945h-1.521V255.482z"/>
<path fill="#FFFFFF" d="M653.464,250.861h-8.658v-0.702h8.658V250.861z"/>
<path fill="#FFFFFF" d="M639.014,250.861h-2.808v-0.702h2.808V250.861z"/>
<path fill="#FFFFFF" d="M661.946,250.861h-2.811v-0.702h2.811V250.861z"/>
<path fill="#FFFFFF" d="M1123.434,277.833c-3.174,0-5.604-0.836-7.228-2.486c-2.045-2.082-2.023-4.678-2.021-4.788v-5.938h18.369
	l0.128,5.938C1132.68,270.651,1132.327,277.833,1123.434,277.833z M1114.905,265.341v5.228c-0.001,0.026-0.013,2.423,1.823,4.281
	c1.479,1.501,3.733,2.265,6.703,2.265c8.186,0,8.521-6.292,8.527-6.562l-0.111-5.212L1114.905,265.341L1114.905,265.341z"/>
<path fill="#FFFFFF" d="M1130.916,274.916l-0.311-0.651c0.062-0.028,6.5-3.136,6.398-6.511c-0.025-0.92-0.331-1.604-0.904-2.035
	c-1.351-1.014-3.783-0.396-3.81-0.39l-0.185-0.697c0.112-0.029,2.793-0.713,4.426,0.509c0.758,0.568,1.159,1.439,1.191,2.595
	C1137.84,271.575,1131.198,274.781,1130.916,274.916z"/>
<path fill="#FFFFFF" d="M1131.361,278.073h-15.735v-0.724h15.735V278.073z"/>
<path fill="#FFFFFF" d="M1120.857,260.965l-0.614-0.378l2.521-4.084l0.613,0.378L1120.857,260.965z"/>
<path fill="#FFFFFF" d="M1125.662,260.004l-0.614-0.379l2.522-4.084l0.611,0.379L1125.662,260.004z"/>
</svg>
