<?xml version="1.0" encoding="utf-8"?>
<!-- Generator: Adobe Illustrator 15.0.0, SVG Export Plug-In . SVG Version: 6.00 Build 0)  -->
<!DOCTYPE svg PUBLIC "-//W3C//DTD SVG 1.1//EN" "http://www.w3.org/Graphics/SVG/1.1/DTD/svg11.dtd">
<svg version="1.1" id="Layer_2" xmlns="http://www.w3.org/2000/svg" xmlns:xlink="http://www.w3.org/1999/xlink" x="0px" y="0px"
	 width="1228px" height="960px" viewBox="0 0 1228 960" enable-background="new 0 0 1228 960" xml:space="preserve">
<path fill="#7A8097" d="M524.998,652.312c-28.793,0-52.135,23.342-52.135,52.135c0,10.669,3.21,20.585,8.709,28.847l-0.444,0.023
	l47.28,56.497l37.526-53.104c1.148-1.456,2.222-2.972,3.212-4.546l2.574-3.643l-0.497,0.026c3.767-7.21,5.909-15.403,5.909-24.102
	C577.133,675.654,553.791,652.312,524.998,652.312z"/>
<path fill="#7A8097" d="M1047.474,723.843l-0.451,0.023c3.424-6.554,5.371-14.002,5.371-21.909c0-26.176-21.22-47.396-47.396-47.396
	s-47.395,21.22-47.395,47.396c0,9.699,2.919,18.713,7.918,26.224l-0.404,0.021l42.982,51.36l34.113-48.275
	c1.045-1.323,2.021-2.702,2.922-4.134L1047.474,723.843z"/>
<path fill="#F2DBB4" d="M534.263,712.236c-1.431,0-2.363-0.057-2.512-0.066l0.129-1.977c0.151,0.012,14.917,0.9,21.395-5.029
	c1.932-1.766,2.9-3.908,2.962-6.545c0.08-3.369-0.864-6.062-2.802-8c-3.61-3.615-9.552-3.521-9.633-3.527l-0.048-1.98
	c0.286,0,6.847-0.123,11.072,4.096c2.342,2.338,3.483,5.52,3.392,9.459c-0.073,3.16-1.288,5.84-3.608,7.963
	C549.159,711.615,538.986,712.236,534.263,712.236z"/>
<path fill="#F2DBB4" d="M542.542,733.953h-34.284l0.124-22.514c-2.282-0.236-8.055-1.221-11.725-5.256
	c-2.314-2.543-3.362-5.822-3.117-9.748c0.244-3.91,1.582-6.92,3.978-8.947c2.945-2.494,6.592-2.754,8.22-2.736
	c1.326-3.221,7.763-15.828,25.642-11.742c5.271,1.205,8.981,3.734,11.031,7.521c3.624,6.695,0.694,14.811,0.567,15.152L541.119,695
	c0.027-0.076,2.742-7.637-0.458-13.537c-1.766-3.258-5.039-5.453-9.724-6.523c-18.526-4.229-23.387,10.498-23.584,11.129
	l-0.241,0.768l-0.805-0.078c-0.041-0.006-4.397-0.406-7.523,2.254c-1.959,1.666-3.059,4.205-3.268,7.547
	c-0.21,3.367,0.664,6.156,2.599,8.285c3.985,4.391,11.223,4.686,11.296,4.689l0.961,0.031l-0.122,22.408h30.313v-21.121h1.979
	V733.953z"/>
<path fill="#F2DBB4" d="M971.037,700.799c-1.388,0-2.361-0.205-2.451-0.225l0.382-1.76c0.044,0.012,4.456,0.92,7.669-1.49
	c0.788-0.59,1.689-1.355,2.68-2.191c3.701-3.135,8.309-7.037,12.812-7.287c4.856-0.25,11.617,4.262,13.681,5.736
	c1.754-1.561,7.312-5.99,13.108-5.736c4.676,0.213,8.379,3.658,11.354,6.428c1.439,1.342,2.685,2.5,3.679,2.951
	c3.089,1.404,8.274,1.42,8.327,1.42v1.801c-0.229,0-5.632-0.02-9.072-1.582c-1.26-0.572-2.604-1.822-4.161-3.271
	c-2.758-2.568-6.192-5.766-10.207-5.947c-6.193-0.258-12.268,5.682-12.329,5.742l-0.554,0.547l-0.623-0.471
	c-0.079-0.062-8.038-6.094-13.104-5.82c-3.899,0.217-8.437,4.059-11.75,6.863c-1.018,0.861-1.949,1.65-2.761,2.258
	C975.493,700.434,972.893,700.799,971.037,700.799z"/>
<path fill="#F2DBB4" d="M1005.788,720.77c-19.168,0-32.41-19.885-32.964-20.732l1.505-0.984
	c0.132,0.197,13.271,19.916,31.459,19.916c15.849,0,30.518-19.756,30.664-19.955l1.451,1.062
	C1037.285,700.922,1022.553,720.77,1005.788,720.77z"/>
</svg>
