<?xml version="1.0" encoding="utf-8"?>
<!-- Generator: Adobe Illustrator 15.0.0, SVG Export Plug-In . SVG Version: 6.00 Build 0)  -->
<!DOCTYPE svg PUBLIC "-//W3C//DTD SVG 1.1//EN" "http://www.w3.org/Graphics/SVG/1.1/DTD/svg11.dtd">
<svg version="1.1" id="Layer_1" xmlns="http://www.w3.org/2000/svg" xmlns:xlink="http://www.w3.org/1999/xlink" x="0px" y="0px"
	 width="1440px" height="800px" viewBox="0 0 1440 800" enable-background="new 0 0 1440 800" xml:space="preserve">
<path fill="#4ABCA0" d="M757.376,505.815c-28.793,0-52.135,23.342-52.135,52.135c0,10.669,3.21,20.585,8.709,28.847l-0.444,0.023
	l47.28,56.497l37.521-53.104c1.148-1.456,2.227-2.972,3.212-4.546l2.574-3.643l-0.497,0.021c3.771-7.21,5.909-15.402,5.909-24.102
	C809.511,529.157,786.169,505.815,757.376,505.815z"/>
<path fill="#4ABCA0" d="M1259.474,563.843l-0.446,0.023c3.424-6.554,5.367-14.002,5.367-21.909
	c0-26.176-21.221-47.396-47.396-47.396s-47.396,21.225-47.396,47.396c0,9.699,2.92,18.713,7.92,26.224l-0.404,0.021l42.979,51.36
	l34.113-48.275c1.045-1.323,2.021-2.702,2.922-4.134L1259.474,563.843z"/>
<path fill="#FFFFFF" d="M766.641,565.739c-1.431,0-2.358-0.061-2.512-0.066l0.129-1.977c0.151,0.012,14.917,0.896,21.396-5.029
	c1.932-1.766,2.896-3.908,2.962-6.545c0.08-3.369-0.864-6.062-2.804-8c-3.608-3.615-9.555-3.521-9.636-3.526l-0.047-1.979
	c0.286,0,6.85-0.123,11.072,4.096c2.342,2.338,3.479,5.521,3.392,9.459c-0.068,3.16-1.288,5.84-3.604,7.963
	C781.537,565.118,771.364,565.739,766.641,565.739z"/>
<path fill="#FFFFFF" d="M774.92,587.456h-34.284l0.124-22.514c-2.282-0.236-8.055-1.225-11.725-5.26
	c-2.314-2.543-3.362-5.818-3.117-9.747c0.244-3.907,1.582-6.921,3.978-8.944c2.945-2.494,6.597-2.754,8.225-2.736
	c1.326-3.221,7.763-15.828,25.642-11.742c5.271,1.205,8.981,3.734,11.031,7.521c3.624,6.691,0.694,14.811,0.567,15.148l-1.86-0.683
	c0.027-0.076,2.742-7.637-0.458-13.537c-1.768-3.258-5.039-5.453-9.724-6.521c-18.526-4.229-23.392,10.497-23.584,11.129
	l-0.241,0.768l-0.809-0.078c-0.041-0.006-4.396-0.401-7.521,2.255c-1.959,1.666-3.062,4.205-3.271,7.551
	c-0.211,3.363,0.664,6.151,2.603,8.281c3.981,4.395,11.223,4.688,11.296,4.688l0.961,0.031l-0.122,22.406h30.312v-21.119h1.979
	L774.92,587.456L774.92,587.456z"/>
<path fill="#FFFFFF" d="M1183.037,540.799c-1.389,0-2.361-0.205-2.451-0.225l0.382-1.76c0.044,0.012,4.456,0.92,7.669-1.49
	c0.788-0.59,1.689-1.355,2.682-2.191c3.699-3.135,8.312-7.037,12.812-7.287c4.855-0.25,11.617,4.267,13.682,5.736
	c1.756-1.561,7.312-5.99,13.107-5.736c4.676,0.213,8.379,3.658,11.354,6.433c1.438,1.342,2.688,2.5,3.683,2.946
	c3.089,1.404,8.271,1.424,8.327,1.424v1.802c-0.229,0-5.632-0.021-9.072-1.582c-1.26-0.572-2.604-1.822-4.161-3.271
	c-2.758-2.563-6.188-5.766-10.207-5.942c-6.19-0.261-12.268,5.682-12.329,5.739l-0.554,0.55l-0.623-0.476
	c-0.079-0.062-8.038-6.094-13.104-5.815c-3.897,0.217-8.438,4.059-11.75,6.858c-1.021,0.861-1.947,1.65-2.764,2.261
	C1187.493,540.434,1184.893,540.799,1183.037,540.799z"/>
<path fill="#FFFFFF" d="M1217.788,560.77c-19.168,0-32.41-19.885-32.964-20.729l1.505-0.984
	c0.132,0.197,13.271,19.916,31.459,19.916c15.849,0,30.518-19.756,30.664-19.955l1.451,1.062
	C1249.285,540.922,1234.553,560.77,1217.788,560.77z"/>
</svg>
