<?xml version="1.0" encoding="utf-8"?>
<!-- Generator: Adobe Illustrator 15.0.0, SVG Export Plug-In . SVG Version: 6.00 Build 0)  -->
<!DOCTYPE svg PUBLIC "-//W3C//DTD SVG 1.1//EN" "http://www.w3.org/Graphics/SVG/1.1/DTD/svg11.dtd">
<svg version="1.1" id="Layer_2" xmlns="http://www.w3.org/2000/svg" xmlns:xlink="http://www.w3.org/1999/xlink" x="0px" y="0px"
	 width="68px" height="68px" viewBox="0 0 68 68" enable-background="new 0 0 68 68" xml:space="preserve">
<g>
	<path fill="#C9B579" d="M45.993,18.976l-3.981-3.98c0,0-1.091-1.308-2.078-0.282c-1.021,1.056,0.691,2.208,0.691,2.208l2.561,2.562
		h-5.481c0.067,0.448,0.114,0.903,0.114,1.37c0,0.274-0.021,0.546-0.039,0.812h5.468l-3.05,3.05c0,0-0.698,1.044-0.043,1.688
		c0.654,0.643,1.591-0.11,1.591-0.11l4.575-4.577c0,0,0.732-0.647,0.746-1.226C47.074,19.941,45.993,18.976,45.993,18.976z"/>
	<path fill="#C9B579" d="M14.479,21.665h5.51c-0.026-0.267-0.043-0.538-0.043-0.812c0-0.466,0.047-0.922,0.116-1.37H14.54
		l2.558-2.562c0,0,1.714-1.152,0.696-2.208c-0.99-1.025-2.078,0.282-2.078,0.282l-3.983,3.98c0,0-1.082,0.965-1.071,1.513
		c0.013,0.579,0.747,1.227,0.747,1.227l4.576,4.577c0,0,0.936,0.753,1.59,0.11c0.653-0.645-0.045-1.688-0.045-1.688L14.479,21.665z"
		/>
	<path fill="#C9B579" d="M24.499,26.785v-3.223c-0.49-0.789-0.785-1.713-0.785-2.711c0-2.854,2.313-5.171,5.169-5.171
		c2.854,0,5.168,2.316,5.168,5.171c0,0.792-0.189,1.534-0.508,2.205l-0.051,3.558c1.49-1.193,2.509-2.951,2.729-4.952
		c0.027-0.265,0.047-0.537,0.047-0.812c0-0.466-0.05-0.927-0.134-1.369c-0.645-3.425-3.644-6.014-7.254-6.014
		c-3.607,0-6.61,2.589-7.253,6.014c-0.083,0.442-0.131,0.901-0.131,1.369c0,0.275,0.017,0.548,0.047,0.812
		C21.776,23.765,22.887,25.592,24.499,26.785z"/>
	<path fill="#C9B579" d="M42.596,32.756c-1.516-0.641-2.676-0.352-2.676-0.352s-0.891-1.509-2.23-1.884
		c-1.342-0.371-1.914,0.061-1.914,0.061s-0.405-1.822-1.918-2.307c-0.012-0.002-0.018-0.008-0.026-0.013
		c-1.497-0.457-2.313,0.17-2.313,0.17l-0.004-0.683l-0.004-0.111l-0.013-2.347l-0.025-3.263l-0.002-0.438
		c0,0,0.417-3.441-2.617-3.309c-2.831,0.125-2.322,3.35-2.322,3.35l0.003,0.717l0.008,3.091l0.008,2.417v0.085l0.004,1.53
		l0.021,7.235c0,0-1.613-4.314-4.07-4.708s-3.114,1.008-2.643,2.642c0.473,1.635,5.89,9.422,6.792,10.609
		c1.165,1.531,1.94,2.623,4.081,2.732c2.14,0.106,8.21-0.287,9.389-0.215c1.176,0.076,3.373-0.617,3.698-4.824
		c0.32-4.201,0.423-7.521,0.423-7.521S44.111,33.397,42.596,32.756z"/>
</g>
</svg>
