<?xml version="1.0" encoding="utf-8"?>
<!-- Generator: Adobe Illustrator 15.0.0, SVG Export Plug-In . SVG Version: 6.00 Build 0)  -->
<!DOCTYPE svg PUBLIC "-//W3C//DTD SVG 1.1//EN" "http://www.w3.org/Graphics/SVG/1.1/DTD/svg11.dtd">
<svg version="1.1" id="Layer_1" xmlns="http://www.w3.org/2000/svg" xmlns:xlink="http://www.w3.org/1999/xlink" x="0px" y="0px"
	 width="65px" height="80px" viewBox="0 0 65 80" enable-background="new 0 0 65 80" xml:space="preserve">
<g>
	<path fill="#D3C497" d="M33,77.692L8.381,48.362C4.436,42.82,2.542,37.146,2.542,30.954c0-15.218,14.231-28.604,30.455-28.646
		C49.227,2.35,63.458,15.735,63.458,30.954c0,6.193-1.894,11.867-5.789,17.345L33,77.692z M32.997,4.308
		C17.842,4.347,4.542,16.798,4.542,30.954c0,5.763,1.772,11.058,5.42,16.186L33,74.582l23.088-27.506
		c3.598-5.064,5.37-10.359,5.37-16.123C61.458,16.798,48.158,4.347,32.997,4.308z"/>
	<path fill="#D3C497" d="M33,42.031c-6.479,0-11.75-5.271-11.75-11.75c0-6.479,5.271-11.75,11.75-11.75s11.75,5.271,11.75,11.75
		C44.75,36.761,39.479,42.031,33,42.031z M33,20.031c-5.652,0-10.25,4.599-10.25,10.25c0,5.652,4.598,10.25,10.25,10.25
		s10.25-4.598,10.25-10.25C43.25,24.63,38.652,20.031,33,20.031z"/>
</g>
</svg>
